<?xml version="1.0" encoding="utf-8"?>
<!-- Generator: Adobe Illustrator 25.1.0, SVG Export Plug-In . SVG Version: 6.00 Build 0)  -->
<svg version="1.1" id="close" xmlns="http://www.w3.org/2000/svg" xmlns:xlink="http://www.w3.org/1999/xlink" x="0px" y="0px"
	 viewBox="0 0 6 6" style="enable-background:new 0 0 6 6;" xml:space="preserve">
<style type="text/css">
	.st0{fill-rule:evenodd;clip-rule:evenodd;fill:#5599dd;}
</style>
<path class="st0" d="M5.79834,1.1869c0.26876-0.26905,0.26876-0.70495,0-0.974L5.78704,0.20163
	c-0.2691-0.26874-0.70505-0.26874-0.97415,0L3.09403,1.92024C3.04313,1.97217,2.9598,1.97302,2.90786,1.92215
	C2.90723,1.92151,2.9066,1.92088,2.90597,1.92024L1.18803,0.20163c-0.26939-0.26884-0.70568-0.26884-0.97507,0L0.20166,0.2129
	c-0.26876,0.26905-0.26876,0.70495,0,0.974l1.71793,1.71861C1.97153,2.95564,1.97296,3.03837,1.92286,3.0903
	C1.92177,3.0914,1.92068,3.09248,1.91959,3.09354L0.20166,4.81215c-0.26888,0.26938-0.26888,0.70556,0,0.97495l0.01131,0.01128
	c0.26939,0.26884,0.70568,0.26884,0.97507,0l1.71793-1.71861c0.05159-0.05193,0.13556-0.05219,0.1875-0.00057
	c0.00017,0.00019,0.0004,0.00039,0.00057,0.00057l1.71885,1.71861c0.2691,0.26874,0.70505,0.26874,0.97415,0L5.79834,5.7871
	c0.26888-0.26938,0.26888-0.70556,0-0.97495L4.07949,3.09354C4.02755,3.04342,4.02612,2.96069,4.07622,2.90875
	c0.00109-0.0011,0.00218-0.00218,0.00327-0.00324L5.79834,1.1869z"/>
</svg>
