<?xml version="1.0" encoding="utf-8"?>
<!-- Generator: Adobe Illustrator 25.2.3, SVG Export Plug-In . SVG Version: 6.00 Build 0)  -->
<svg version="1.1" id="arrow" xmlns="http://www.w3.org/2000/svg" xmlns:xlink="http://www.w3.org/1999/xlink" x="0px" y="0px"
	 viewBox="0 0 15 13.54947" style="enable-background:new 0 0 15 13.54947;" xml:space="preserve">
<style type="text/css">
	.st0{fill-rule:evenodd;clip-rule:evenodd;fill:#A8A9AD;}
</style>
<path id="arrow-2" class="st0" d="M13.55088,13.54947c-0.38727-0.00144-0.75812-0.15673-1.03072-0.43184L7.29813,7.80728
	c-0.56928-0.56916-0.56928-1.49228,0-2.06145l5.22203-5.31034c0.55311-0.56916,1.46293-0.5821,2.03209-0.029
	c0.00659,0.00623,0.01306,0.0127,0.01941,0.01917c0.56724,0.57228,0.57156,1.49348,0.00982,2.07127L10.3704,6.7768l4.21108,4.27003
	c0.56185,0.57779,0.55742,1.49899-0.00982,2.07127C14.30277,13.39274,13.93516,13.54803,13.55088,13.54947z"/>
<path id="arrow_copy_5" class="st0" d="M6.67972,13.54947c-0.38727-0.00144-0.75812-0.15673-1.03072-0.43184L0.42696,7.80728
	c-0.56928-0.56916-0.56928-1.49228,0-2.06145L5.64899,0.4355c0.55311-0.56916,1.46293-0.5821,2.03209-0.029
	c0.00659,0.00623,0.01306,0.0127,0.01941,0.01917c0.56725,0.57228,0.57156,1.49348,0.00983,2.07127L3.49924,6.7768l4.21108,4.27003
	c0.56185,0.57779,0.55742,1.49899-0.00983,2.07127C7.43161,13.39274,7.06399,13.54803,6.67972,13.54947z"/>
</svg>
