<svg id="next" xmlns="http://www.w3.org/2000/svg" xmlns:xlink="http://www.w3.org/1999/xlink" width="82" height="82" viewBox="0 0 82 82">
  <defs>
    <style>
      .cls-1 {
        fill: #fff;
        stroke: #ddd;
        stroke-width: 1px;
        filter: url(#filter);
      }

      .cls-2 {
        fill: #67823a;
        fill-rule: evenodd;
      }
    </style>
    <filter id="filter" x="0.5" y="0.5" width="81" height="81" filterUnits="userSpaceOnUse">
      <feOffset result="offset" dy="5" in="SourceAlpha"/>
      <feGaussianBlur result="blur" stdDeviation="4"/>
      <feFlood result="flood" flood-color="#67823a" flood-opacity="0.19"/>
      <feComposite result="composite" operator="in" in2="blur"/>
      <feBlend result="blend" in="SourceGraphic"/>
    </filter>
  </defs>
  <g id="bg">
    <g style="fill: #fff; filter: url(#filter)">
      <circle id="circle" class="cls-1" cx="40.5" cy="35.5" r="25" style="stroke: inherit; filter: none; fill: inherit"/>
    </g>
    <use xlink:href="#circle" style="stroke: #ddd; filter: none; fill: none"/>
  </g>
  <g id="arrow">
    <path id="arrow-2" data-name="arrow" class="cls-2" d="M1661.21,2020.79a1.486,1.486,0,0,0,1.05-.44l5.32-5.41a1.485,1.485,0,0,0,0-2.1l-5.32-5.41a1.464,1.464,0,0,0-2.09-.01,1.506,1.506,0,0,0-.01,2.11l4.29,4.36-4.29,4.35a1.506,1.506,0,0,0,.01,2.11A1.463,1.463,0,0,0,1661.21,2020.79Z" transform="translate(-1623.5 -1978.5)"/>
  </g>
</svg>
