<?xml version="1.0" encoding="utf-8"?>
<!-- Generator: Adobe Illustrator 25.2.3, SVG Export Plug-In . SVG Version: 6.00 Build 0)  -->
<svg version="1.1" id="arrow" xmlns="http://www.w3.org/2000/svg" xmlns:xlink="http://www.w3.org/1999/xlink" x="0px" y="0px"
	 viewBox="0 0 15 13.54947" style="enable-background:new 0 0 15 13.54947;" xml:space="preserve">
<style type="text/css">
	.st0{fill-rule:evenodd;clip-rule:evenodd;fill:#A8A9AD;}
</style>
<g>
	<path id="arrow-2" class="st0" d="M1.44912,0c0.38727,0.00144,0.75812,0.15673,1.03072,0.43184l5.22203,5.31035
		c0.56928,0.56916,0.56928,1.49228,0,2.06145l-5.22203,5.31034c-0.55311,0.56916-1.46293,0.5821-2.03209,0.029
		c-0.00659-0.00623-0.01306-0.0127-0.01941-0.01917c-0.56724-0.57228-0.57156-1.49348-0.00982-2.07127L4.6296,6.77267
		L0.41852,2.50264C-0.14333,1.92485-0.1389,1.00365,0.42834,0.43137C0.69723,0.15673,1.06484,0.00144,1.44912,0z"/>
	<path id="arrow_copy_5" class="st0" d="M8.32028,0C8.70755,0.00144,9.0784,0.15673,9.351,0.43184l5.22204,5.31035
		c0.56928,0.56916,0.56928,1.49228,0,2.06145l-5.22203,5.31033c-0.55311,0.56916-1.46293,0.5821-2.03209,0.029
		c-0.00659-0.00623-0.01306-0.0127-0.01941-0.01917c-0.56725-0.57228-0.57156-1.49348-0.00983-2.07127l4.21108-4.27986
		L7.28968,2.50264C6.72783,1.92485,6.73226,1.00365,7.29951,0.43137C7.56839,0.15673,7.93601,0.00144,8.32028,0z"/>
</g>
</svg>
