<?xml version="1.0" encoding="utf-8"?>
<!-- Generator: Adobe Illustrator 25.2.3, SVG Export Plug-In . SVG Version: 6.00 Build 0)  -->
<svg version="1.1" id="tick" xmlns="http://www.w3.org/2000/svg" xmlns:xlink="http://www.w3.org/1999/xlink" x="0px" y="0px"
	 viewBox="0 0 8 6" style="enable-background:new 0 0 8 6;" xml:space="preserve">
<style type="text/css">
	.st0{fill-rule:evenodd;clip-rule:evenodd;fill:#fff;}
</style>
<path class="st0" d="M2.43783,5.76106C2.58222,5.91762,2.78802,6.0047,3.00212,5.9998
	c0.21322,0.00047,0.41728-0.0858,0.56429-0.23874l4.22984-4.48826C8.08292,0.96704,8.0649,0.4891,7.75604,0.20524
	C7.75527,0.20466,7.75454,0.20396,7.7538,0.20326c-0.31139-0.28525-0.797-0.26823-1.08713,0.03824L3.00115,4.13768L1.33333,2.36147
	C1.04319,2.05501,0.55759,2.03799,0.2462,2.32324c-0.31001,0.28257-0.32994,0.7604-0.04451,1.06733
	c0.00068,0.0007,0.00138,0.00152,0.00206,0.00221L2.43783,5.76106z"/>
</svg>
