<?xml version="1.0" standalone="no"?>
<!DOCTYPE svg PUBLIC "-//W3C//DTD SVG 20010904//EN"
 "http://www.w3.org/TR/2001/REC-SVG-20010904/DTD/svg10.dtd">
<svg version="1.0" xmlns="http://www.w3.org/2000/svg"
 width="200.000000pt" height="200.000000pt" viewBox="0 0 200.000000 200.000000"
 preserveAspectRatio="xMidYMid meet">

<g transform="translate(0.000000,200.000000) scale(0.100000,-0.100000)"
fill="#000000" stroke="none">
<path d="M0 1000 l0 -1000 1000 0 1000 0 0 1000 0 1000 -1000 0 -1000 0 0
-1000z m1000 635 c0 -39 35 -122 72 -170 44 -58 113 -102 193 -123 l65 -17 0
-162 0 -163 -28 0 c-39 0 -166 33 -227 60 -64 27 -156 90 -149 102 3 5 2 7 -3
6 -12 -4 -103 84 -97 94 3 4 1 8 -4 8 -11 0 -55 61 -55 77 0 7 -3 13 -7 13
-26 0 -103 273 -83 294 3 2 77 5 164 5 l159 0 0 -24z m0 -589 c0 -111 36 -208
103 -276 48 -49 147 -100 195 -100 l32 0 0 -170 0 -170 -43 0 c-65 0 -152 26
-247 72 -121 59 -241 179 -298 298 -52 107 -72 191 -72 303 l0 87 165 0 165 0
0 -44z"/>
</g>
</svg>
